# xmcd
#
# Track frame offsets: 
#        150
#        25372
#        43902
#        73912
#        94562
#        110277
#        131640
#        151400
#        167872
#
# Disc length: 2546 seconds
#
# Revision: 101
# Processed by: cddbd v1.5.2PL0 Copyright (c) Steve Scherf et al.
# Submitted via: ExactAudioCopy v1.0b3
#
DISCID=7909f009
DTITLE=Whitesnake - Carrere
DYEAR=1987
DGENRE=Hard Rock
TTITLE0=Crying In The Rain
TTITLE1=Bad Boys
TTITLE2=Still Of The Night
TTITLE3=Here I Go Again
TTITLE4=Give Me All Your Love
TTITLE5=Is This Love
TTITLE6=Children Of The Night
TTITLE7=Straight For The Heart
TTITLE8=Don't Turn Away
EXTD=YEAR: 1987
EXTT0=
EXTT1=
EXTT2=
EXTT3=
EXTT4=
EXTT5=
EXTT6=
EXTT7=
EXTT8=
PLAYORDER=
